<svg id="visual" viewBox="0 0 900 600" width="900" height="600" xmlns="http://www.w3.org/2000/svg" xmlns:xlink="http://www.w3.org/1999/xlink" version="1.1"><path d="M0 31L37.5 49C75 67 150 103 225 119C300 135 375 131 450 131C525 131 600 135 675 122C750 109 825 79 862.5 64L900 49L900 0L862.5 0C825 0 750 0 675 0C600 0 525 0 450 0C375 0 300 0 225 0C150 0 75 0 37.5 0L0 0Z" fill="#b4b4c6"></path><path d="M0 139L37.5 150C75 161 150 183 225 201C300 219 375 233 450 229C525 225 600 203 675 178C750 153 825 125 862.5 111L900 97L900 47L862.5 62C825 77 750 107 675 120C600 133 525 129 450 129C375 129 300 133 225 117C150 101 75 65 37.5 47L0 29Z" fill="#b2c2cd"></path><path d="M0 259L37.5 272C75 285 150 311 225 318C300 325 375 313 450 293C525 273 600 245 675 235C750 225 825 233 862.5 237L900 241L900 95L862.5 109C825 123 750 151 675 176C600 201 525 223 450 227C375 231 300 217 225 199C150 181 75 159 37.5 148L0 137Z" fill="#bbcdce"></path><path d="M0 337L37.5 346C75 355 150 373 225 405C300 437 375 483 450 504C525 525 600 521 675 493C750 465 825 413 862.5 387L900 361L900 239L862.5 235C825 231 750 223 675 233C600 243 525 271 450 291C375 311 300 323 225 316C150 309 75 283 37.5 270L0 257Z" fill="#ccd6d0"></path><path d="M0 601L37.5 601C75 601 150 601 225 601C300 601 375 601 450 601C525 601 600 601 675 601C750 601 825 601 862.5 601L900 601L900 359L862.5 385C825 411 750 463 675 491C600 519 525 523 450 502C375 481 300 435 225 403C150 371 75 353 37.5 344L0 335Z" fill="#ddded8"></path></svg>