<svg id="visual" viewBox="0 0 900 600" width="900" height="600" xmlns="http://www.w3.org/2000/svg" xmlns:xlink="http://www.w3.org/1999/xlink" version="1.1"><path d="M0 175L12.5 173C25 171 50 167 75 158C100 149 125 135 150 120C175 105 200 89 225 90C250 91 275 109 300 142C325 175 350 223 375 235C400 247 425 223 450 228C475 233 500 267 525 258C550 249 575 197 600 176C625 155 650 165 675 178C700 191 725 207 750 212C775 217 800 211 825 213C850 215 875 225 887.5 230L900 235L900 0L887.5 0C875 0 850 0 825 0C800 0 775 0 750 0C725 0 700 0 675 0C650 0 625 0 600 0C575 0 550 0 525 0C500 0 475 0 450 0C425 0 400 0 375 0C350 0 325 0 300 0C275 0 250 0 225 0C200 0 175 0 150 0C125 0 100 0 75 0C50 0 25 0 12.5 0L0 0Z" fill="#b4b4c6"></path><path d="M0 319L12.5 311C25 303 50 287 75 262C100 237 125 203 150 195C175 187 200 205 225 216C250 227 275 231 300 256C325 281 350 327 375 332C400 337 425 301 450 298C475 295 500 325 525 324C550 323 575 291 600 283C625 275 650 291 675 312C700 333 725 359 750 363C775 367 800 349 825 330C850 311 875 291 887.5 281L900 271L900 233L887.5 228C875 223 850 213 825 211C800 209 775 215 750 210C725 205 700 189 675 176C650 163 625 153 600 174C575 195 550 247 525 256C500 265 475 231 450 226C425 221 400 245 375 233C350 221 325 173 300 140C275 107 250 89 225 88C200 87 175 103 150 118C125 133 100 147 75 156C50 165 25 169 12.5 171L0 173Z" fill="#b2c2cd"></path><path d="M0 361L12.5 355C25 349 50 337 75 326C100 315 125 305 150 304C175 303 200 311 225 322C250 333 275 347 300 363C325 379 350 397 375 399C400 401 425 387 450 392C475 397 500 421 525 413C550 405 575 365 600 363C625 361 650 397 675 415C700 433 725 433 750 429C775 425 800 417 825 408C850 399 875 389 887.5 384L900 379L900 269L887.5 279C875 289 850 309 825 328C800 347 775 365 750 361C725 357 700 331 675 310C650 289 625 273 600 281C575 289 550 321 525 322C500 323 475 293 450 296C425 299 400 335 375 330C350 325 325 279 300 254C275 229 250 225 225 214C200 203 175 185 150 193C125 201 100 235 75 260C50 285 25 301 12.5 309L0 317Z" fill="#bbcdce"></path><path d="M0 439L12.5 432C25 425 50 411 75 404C100 397 125 397 150 390C175 383 200 369 225 369C250 369 275 383 300 410C325 437 350 477 375 492C400 507 425 497 450 493C475 489 500 491 525 482C550 473 575 453 600 460C625 467 650 501 675 513C700 525 725 515 750 502C775 489 800 473 825 470C850 467 875 477 887.5 482L900 487L900 377L887.5 382C875 387 850 397 825 406C800 415 775 423 750 427C725 431 700 431 675 413C650 395 625 359 600 361C575 363 550 403 525 411C500 419 475 395 450 390C425 385 400 399 375 397C350 395 325 377 300 361C275 345 250 331 225 320C200 309 175 301 150 302C125 303 100 313 75 324C50 335 25 347 12.5 353L0 359Z" fill="#ccd6d0"></path><path d="M0 601L12.5 601C25 601 50 601 75 601C100 601 125 601 150 601C175 601 200 601 225 601C250 601 275 601 300 601C325 601 350 601 375 601C400 601 425 601 450 601C475 601 500 601 525 601C550 601 575 601 600 601C625 601 650 601 675 601C700 601 725 601 750 601C775 601 800 601 825 601C850 601 875 601 887.5 601L900 601L900 485L887.5 480C875 475 850 465 825 468C800 471 775 487 750 500C725 513 700 523 675 511C650 499 625 465 600 458C575 451 550 471 525 480C500 489 475 487 450 491C425 495 400 505 375 490C350 475 325 435 300 408C275 381 250 367 225 367C200 367 175 381 150 388C125 395 100 395 75 402C50 409 25 423 12.5 430L0 437Z" fill="#ddded8"></path></svg>