<svg id="visual" viewBox="0 0 960 540" width="960" height="540" xmlns="http://www.w3.org/2000/svg" xmlns:xlink="http://www.w3.org/1999/xlink" version="1.1"><rect x="0" y="0" width="960" height="540" fill="#131315"></rect><path d="M0 317L137 316L274 390L411 329L549 399L686 384L823 348L960 338L960 541L823 541L686 541L549 541L411 541L274 541L137 541L0 541Z" fill="#161616"></path><path d="M0 415L137 388L274 381L411 421L549 409L686 426L823 397L960 417L960 541L823 541L686 541L549 541L411 541L274 541L137 541L0 541Z" fill="#1a191a"></path><path d="M0 393L137 393L274 416L411 433L549 397L686 407L823 415L960 445L960 541L823 541L686 541L549 541L411 541L274 541L137 541L0 541Z" fill="#1e1d1f"></path><path d="M0 481L137 447L274 488L411 434L549 461L686 459L823 439L960 470L960 541L823 541L686 541L549 541L411 541L274 541L137 541L0 541Z" fill="#222024"></path><path d="M0 488L137 499L274 498L411 477L549 495L686 476L823 477L960 514L960 541L823 541L686 541L549 541L411 541L274 541L137 541L0 541Z" fill="#262429"></path></svg>