<svg id="visual" viewBox="0 0 960 540" width="960" height="540" xmlns="http://www.w3.org/2000/svg" xmlns:xlink="http://www.w3.org/1999/xlink" version="1.1"><path d="M0 71L64 104L128 77L192 66L256 77L320 60L384 87L448 82L512 114L576 77L640 82L704 66L768 87L832 87L896 66L960 82L960 0L896 0L832 0L768 0L704 0L640 0L576 0L512 0L448 0L384 0L320 0L256 0L192 0L128 0L64 0L0 0Z" fill="#262429"></path><path d="M0 141L64 168L128 136L192 131L256 120L320 98L384 147L448 147L512 158L576 141L640 136L704 114L768 125L832 147L896 125L960 120L960 80L896 64L832 85L768 85L704 64L640 80L576 75L512 112L448 80L384 85L320 58L256 75L192 64L128 75L64 102L0 69Z" fill="#222125"></path><path d="M0 282L64 314L128 255L192 287L256 293L320 244L384 266L448 314L512 336L576 276L640 293L704 228L768 239L832 266L896 233L960 271L960 118L896 123L832 145L768 123L704 112L640 134L576 139L512 156L448 145L384 145L320 96L256 118L192 129L128 134L64 166L0 139Z" fill="#1e1e21"></path><path d="M0 330L64 390L128 336L192 352L256 368L320 325L384 325L448 395L512 384L576 357L640 352L704 287L768 303L832 314L896 309L960 336L960 269L896 231L832 264L768 237L704 226L640 291L576 274L512 334L448 312L384 264L320 242L256 291L192 285L128 253L64 312L0 280Z" fill="#1a1a1d"></path><path d="M0 503L64 503L128 498L192 498L256 492L320 482L384 498L448 503L512 476L576 498L640 482L704 476L768 492L832 503L896 482L960 482L960 334L896 307L832 312L768 301L704 285L640 350L576 355L512 382L448 393L384 323L320 323L256 366L192 350L128 334L64 388L0 328Z" fill="#171719"></path><path d="M0 541L64 541L128 541L192 541L256 541L320 541L384 541L448 541L512 541L576 541L640 541L704 541L768 541L832 541L896 541L960 541L960 480L896 480L832 501L768 490L704 474L640 480L576 496L512 474L448 501L384 496L320 480L256 490L192 496L128 496L64 501L0 501Z" fill="#131315"></path></svg>