<svg id="visual" viewBox="0 0 960 540" width="960" height="540" xmlns="http://www.w3.org/2000/svg" xmlns:xlink="http://www.w3.org/1999/xlink" version="1.1"><path d="M0 125L14.5 131.3C29 137.7 58 150.3 87.2 157.5C116.3 164.7 145.7 166.3 174.8 166.3C204 166.3 233 164.7 262 157.5C291 150.3 320 137.7 349 134C378 130.3 407 135.7 436.2 141.2C465.3 146.7 494.7 152.3 523.8 160.5C553 168.7 582 179.3 611 175.7C640 172 669 154 698 147.7C727 141.3 756 146.7 785.2 152C814.3 157.3 843.7 162.7 872.8 165.3C902 168 931 168 945.5 168L960 168L960 0L945.5 0C931 0 902 0 872.8 0C843.7 0 814.3 0 785.2 0C756 0 727 0 698 0C669 0 640 0 611 0C582 0 553 0 523.8 0C494.7 0 465.3 0 436.2 0C407 0 378 0 349 0C320 0 291 0 262 0C233 0 204 0 174.8 0C145.7 0 116.3 0 87.2 0C58 0 29 0 14.5 0L0 0Z" fill="#131315"></path><path d="M0 195L14.5 203.2C29 211.3 58 227.7 87.2 230.5C116.3 233.3 145.7 222.7 174.8 215.5C204 208.3 233 204.7 262 198.3C291 192 320 183 349 181.2C378 179.3 407 184.7 436.2 190C465.3 195.3 494.7 200.7 523.8 214.2C553 227.7 582 249.3 611 243C640 236.7 669 202.3 698 190.7C727 179 756 190 785.2 200C814.3 210 843.7 219 872.8 227C902 235 931 242 945.5 245.5L960 249L960 166L945.5 166C931 166 902 166 872.8 163.3C843.7 160.7 814.3 155.3 785.2 150C756 144.7 727 139.3 698 145.7C669 152 640 170 611 173.7C582 177.3 553 166.7 523.8 158.5C494.7 150.3 465.3 144.7 436.2 139.2C407 133.7 378 128.3 349 132C320 135.7 291 148.3 262 155.5C233 162.7 204 164.3 174.8 164.3C145.7 164.3 116.3 162.7 87.2 155.5C58 148.3 29 135.7 14.5 129.3L0 123Z" fill="#161619"></path><path d="M0 255L14.5 271.2C29 287.3 58 319.7 87.2 321.5C116.3 323.3 145.7 294.7 174.8 276.7C204 258.7 233 251.3 262 242.3C291 233.3 320 222.7 349 232.5C378 242.3 407 272.7 436.2 284.3C465.3 296 494.7 289 523.8 295.3C553 301.7 582 321.3 611 308.7C640 296 669 251 698 242C727 233 756 260 785.2 274.5C814.3 289 843.7 291 872.8 299.2C902 307.3 931 321.7 945.5 328.8L960 336L960 247L945.5 243.5C931 240 902 233 872.8 225C843.7 217 814.3 208 785.2 198C756 188 727 177 698 188.7C669 200.3 640 234.7 611 241C582 247.3 553 225.7 523.8 212.2C494.7 198.7 465.3 193.3 436.2 188C407 182.7 378 177.3 349 179.2C320 181 291 190 262 196.3C233 202.7 204 206.3 174.8 213.5C145.7 220.7 116.3 231.3 87.2 228.5C58 225.7 29 209.3 14.5 201.2L0 193Z" fill="#19191c"></path><path d="M0 492L14.5 493C29 494 58 496 87.2 494.3C116.3 492.7 145.7 487.3 174.8 481C204 474.7 233 467.3 262 460C291 452.7 320 445.3 349 447.2C378 449 407 460 436.2 453.8C465.3 447.7 494.7 424.3 523.8 414.3C553 404.3 582 407.7 611 407.7C640 407.7 669 404.3 698 401.7C727 399 756 397 785.2 398.7C814.3 400.3 843.7 405.7 872.8 413.8C902 422 931 433 945.5 438.5L960 444L960 334L945.5 326.8C931 319.7 902 305.3 872.8 297.2C843.7 289 814.3 287 785.2 272.5C756 258 727 231 698 240C669 249 640 294 611 306.7C582 319.3 553 299.7 523.8 293.3C494.7 287 465.3 294 436.2 282.3C407 270.7 378 240.3 349 230.5C320 220.7 291 231.3 262 240.3C233 249.3 204 256.7 174.8 274.7C145.7 292.7 116.3 321.3 87.2 319.5C58 317.7 29 285.3 14.5 269.2L0 253Z" fill="#1c1c1f"></path><path d="M0 541L14.5 541C29 541 58 541 87.2 541C116.3 541 145.7 541 174.8 541C204 541 233 541 262 541C291 541 320 541 349 541C378 541 407 541 436.2 541C465.3 541 494.7 541 523.8 541C553 541 582 541 611 541C640 541 669 541 698 541C727 541 756 541 785.2 541C814.3 541 843.7 541 872.8 541C902 541 931 541 945.5 541L960 541L960 442L945.5 436.5C931 431 902 420 872.8 411.8C843.7 403.7 814.3 398.3 785.2 396.7C756 395 727 397 698 399.7C669 402.3 640 405.7 611 405.7C582 405.7 553 402.3 523.8 412.3C494.7 422.3 465.3 445.7 436.2 451.8C407 458 378 447 349 445.2C320 443.3 291 450.7 262 458C233 465.3 204 472.7 174.8 479C145.7 485.3 116.3 490.7 87.2 492.3C58 494 29 492 14.5 491L0 490Z" fill="#201e22"></path></svg>