<svg id="visual" viewBox="0 0 960 540" width="960" height="540" xmlns="http://www.w3.org/2000/svg" xmlns:xlink="http://www.w3.org/1999/xlink" version="1.1"><rect x="0" y="0" width="960" height="540" fill="#131315"></rect><path d="M0 215L22.8 224.5C45.7 234 91.3 253 137 247.8C182.7 242.7 228.3 213.3 274 198.5C319.7 183.7 365.3 183.3 411.2 198.5C457 213.7 503 244.3 548.8 255.2C594.7 266 640.3 257 686 264C731.7 271 777.3 294 823 295.3C868.7 296.7 914.3 276.3 937.2 266.2L960 256L960 541L937.2 541C914.3 541 868.7 541 823 541C777.3 541 731.7 541 686 541C640.3 541 594.7 541 548.8 541C503 541 457 541 411.2 541C365.3 541 319.7 541 274 541C228.3 541 182.7 541 137 541C91.3 541 45.7 541 22.8 541L0 541Z" fill="#262429"></path><path d="M0 335L22.8 323.8C45.7 312.7 91.3 290.3 137 289.7C182.7 289 228.3 310 274 308.8C319.7 307.7 365.3 284.3 411.2 284.7C457 285 503 309 548.8 323.7C594.7 338.3 640.3 343.7 686 339.2C731.7 334.7 777.3 320.3 823 309.2C868.7 298 914.3 290 937.2 286L960 282L960 541L937.2 541C914.3 541 868.7 541 823 541C777.3 541 731.7 541 686 541C640.3 541 594.7 541 548.8 541C503 541 457 541 411.2 541C365.3 541 319.7 541 274 541C228.3 541 182.7 541 137 541C91.3 541 45.7 541 22.8 541L0 541Z" fill="#211f23"></path><path d="M0 385L22.8 388.2C45.7 391.3 91.3 397.7 137 401.3C182.7 405 228.3 406 274 391.2C319.7 376.3 365.3 345.7 411.2 333.3C457 321 503 327 548.8 339.5C594.7 352 640.3 371 686 378.8C731.7 386.7 777.3 383.3 823 382.7C868.7 382 914.3 384 937.2 385L960 386L960 541L937.2 541C914.3 541 868.7 541 823 541C777.3 541 731.7 541 686 541C640.3 541 594.7 541 548.8 541C503 541 457 541 411.2 541C365.3 541 319.7 541 274 541C228.3 541 182.7 541 137 541C91.3 541 45.7 541 22.8 541L0 541Z" fill="#1c1b1e"></path><path d="M0 445L22.8 432.5C45.7 420 91.3 395 137 391.7C182.7 388.3 228.3 406.7 274 419.7C319.7 432.7 365.3 440.3 411.2 443.2C457 446 503 444 548.8 435C594.7 426 640.3 410 686 398C731.7 386 777.3 378 823 382.8C868.7 387.7 914.3 405.3 937.2 414.2L960 423L960 541L937.2 541C914.3 541 868.7 541 823 541C777.3 541 731.7 541 686 541C640.3 541 594.7 541 548.8 541C503 541 457 541 411.2 541C365.3 541 319.7 541 274 541C228.3 541 182.7 541 137 541C91.3 541 45.7 541 22.8 541L0 541Z" fill="#171619"></path><path d="M0 480L22.8 479.8C45.7 479.7 91.3 479.3 137 471.7C182.7 464 228.3 449 274 452.3C319.7 455.7 365.3 477.3 411.2 478.3C457 479.3 503 459.7 548.8 451.3C594.7 443 640.3 446 686 445.3C731.7 444.7 777.3 440.3 823 447.3C868.7 454.3 914.3 472.7 937.2 481.8L960 491L960 541L937.2 541C914.3 541 868.7 541 823 541C777.3 541 731.7 541 686 541C640.3 541 594.7 541 548.8 541C503 541 457 541 411.2 541C365.3 541 319.7 541 274 541C228.3 541 182.7 541 137 541C91.3 541 45.7 541 22.8 541L0 541Z" fill="#121114"></path></svg>