<svg id="visual" viewBox="0 0 900 600" width="900" height="600" xmlns="http://www.w3.org/2000/svg" xmlns:xlink="http://www.w3.org/1999/xlink" version="1.1"><path d="M0 91L12.5 104C25 117 50 143 75 137C100 131 125 93 150 90C175 87 200 119 225 130C250 141 275 131 300 117C325 103 350 85 375 85C400 85 425 103 450 105C475 107 500 93 525 100C550 107 575 135 600 130C625 125 650 87 675 75C700 63 725 77 750 96C775 115 800 139 825 150C850 161 875 159 887.5 158L900 157L900 0L887.5 0C875 0 850 0 825 0C800 0 775 0 750 0C725 0 700 0 675 0C650 0 625 0 600 0C575 0 550 0 525 0C500 0 475 0 450 0C425 0 400 0 375 0C350 0 325 0 300 0C275 0 250 0 225 0C200 0 175 0 150 0C125 0 100 0 75 0C50 0 25 0 12.5 0L0 0Z" fill="#b4b4c6"></path><path d="M0 193L12.5 207C25 221 50 249 75 256C100 263 125 249 150 264C175 279 200 323 225 325C250 327 275 287 300 284C325 281 350 315 375 325C400 335 425 321 450 317C475 313 500 319 525 327C550 335 575 345 600 336C625 327 650 299 675 284C700 269 725 267 750 286C775 305 800 345 825 376C850 407 875 429 887.5 440L900 451L900 155L887.5 156C875 157 850 159 825 148C800 137 775 113 750 94C725 75 700 61 675 73C650 85 625 123 600 128C575 133 550 105 525 98C500 91 475 105 450 103C425 101 400 83 375 83C350 83 325 101 300 115C275 129 250 139 225 128C200 117 175 85 150 88C125 91 100 129 75 135C50 141 25 115 12.5 102L0 89Z" fill="#b2c2cd"></path><path d="M0 253L12.5 274C25 295 50 337 75 339C100 341 125 303 150 317C175 331 200 397 225 408C250 419 275 375 300 361C325 347 350 363 375 375C400 387 425 395 450 405C475 415 500 427 525 429C550 431 575 423 600 404C625 385 650 355 675 341C700 327 725 329 750 354C775 379 800 427 825 452C850 477 875 479 887.5 480L900 481L900 449L887.5 438C875 427 850 405 825 374C800 343 775 303 750 284C725 265 700 267 675 282C650 297 625 325 600 334C575 343 550 333 525 325C500 317 475 311 450 315C425 319 400 333 375 323C350 313 325 279 300 282C275 285 250 325 225 323C200 321 175 277 150 262C125 247 100 261 75 254C50 247 25 219 12.5 205L0 191Z" fill="#bbcdce"></path><path d="M0 559L12.5 558C25 557 50 555 75 546C100 537 125 521 150 519C175 517 200 529 225 535C250 541 275 541 300 533C325 525 350 509 375 513C400 517 425 541 450 545C475 549 500 533 525 525C550 517 575 517 600 522C625 527 650 537 675 540C700 543 725 539 750 538C775 537 800 539 825 544C850 549 875 557 887.5 561L900 565L900 479L887.5 478C875 477 850 475 825 450C800 425 775 377 750 352C725 327 700 325 675 339C650 353 625 383 600 402C575 421 550 429 525 427C500 425 475 413 450 403C425 393 400 385 375 373C350 361 325 345 300 359C275 373 250 417 225 406C200 395 175 329 150 315C125 301 100 339 75 337C50 335 25 293 12.5 272L0 251Z" fill="#ccd6d0"></path><path d="M0 601L12.5 601C25 601 50 601 75 601C100 601 125 601 150 601C175 601 200 601 225 601C250 601 275 601 300 601C325 601 350 601 375 601C400 601 425 601 450 601C475 601 500 601 525 601C550 601 575 601 600 601C625 601 650 601 675 601C700 601 725 601 750 601C775 601 800 601 825 601C850 601 875 601 887.5 601L900 601L900 563L887.5 559C875 555 850 547 825 542C800 537 775 535 750 536C725 537 700 541 675 538C650 535 625 525 600 520C575 515 550 515 525 523C500 531 475 547 450 543C425 539 400 515 375 511C350 507 325 523 300 531C275 539 250 539 225 533C200 527 175 515 150 517C125 519 100 535 75 544C50 553 25 555 12.5 556L0 557Z" fill="#ddded8"></path></svg>