<svg id="visual" viewBox="0 0 900 600" width="900" height="600" xmlns="http://www.w3.org/2000/svg" xmlns:xlink="http://www.w3.org/1999/xlink" version="1.1"><rect x="0" y="0" width="900" height="600" fill="#B4B4C6"></rect><path d="M0 301L21.5 288.2C43 275.3 86 249.7 128.8 227.2C171.7 204.7 214.3 185.3 257.2 186.7C300 188 343 210 385.8 232.3C428.7 254.7 471.3 277.3 514.2 278.3C557 279.3 600 258.7 642.8 239.7C685.7 220.7 728.3 203.3 771.2 203.8C814 204.3 857 222.7 878.5 231.8L900 241L900 601L878.5 601C857 601 814 601 771.2 601C728.3 601 685.7 601 642.8 601C600 601 557 601 514.2 601C471.3 601 428.7 601 385.8 601C343 601 300 601 257.2 601C214.3 601 171.7 601 128.8 601C86 601 43 601 21.5 601L0 601Z" fill="#cdc5db"></path><path d="M0 261L21.5 281.2C43 301.3 86 341.7 128.8 351.3C171.7 361 214.3 340 257.2 323C300 306 343 293 385.8 285.3C428.7 277.7 471.3 275.3 514.2 279.8C557 284.3 600 295.7 642.8 309.7C685.7 323.7 728.3 340.3 771.2 341.2C814 342 857 327 878.5 319.5L900 312L900 601L878.5 601C857 601 814 601 771.2 601C728.3 601 685.7 601 642.8 601C600 601 557 601 514.2 601C471.3 601 428.7 601 385.8 601C343 601 300 601 257.2 601C214.3 601 171.7 601 128.8 601C86 601 43 601 21.5 601L0 601Z" fill="#e3cfcc"></path><path d="M0 523L21.5 498.5C43 474 86 425 128.8 415C171.7 405 214.3 434 257.2 434.7C300 435.3 343 407.7 385.8 395.7C428.7 383.7 471.3 387.3 514.2 400.5C557 413.7 600 436.3 642.8 445.8C685.7 455.3 728.3 451.7 771.2 453.5C814 455.3 857 462.7 878.5 466.3L900 470L900 601L878.5 601C857 601 814 601 771.2 601C728.3 601 685.7 601 642.8 601C600 601 557 601 514.2 601C471.3 601 428.7 601 385.8 601C343 601 300 601 257.2 601C214.3 601 171.7 601 128.8 601C86 601 43 601 21.5 601L0 601Z" fill="#ddded8"></path></svg>